<?xml version="1.0" encoding="UTF-8"?> <svg xmlns="http://www.w3.org/2000/svg" xmlns:xlink="http://www.w3.org/1999/xlink" xmlns:xodm="http://www.corel.com/coreldraw/odm/2003" xml:space="preserve" width="700px" height="239px" version="1.1" shape-rendering="geometricPrecision" text-rendering="geometricPrecision" image-rendering="optimizeQuality" fill-rule="evenodd" clip-rule="evenodd" viewBox="0 0 1775.66 605.69"> <g id="Capa_x0020_1"> <metadata id="CorelCorpID_0Corel-Layer"></metadata> <path fill="#005299" fill-rule="nonzero" d="M209.34 390.06c-17.63,12.99 -42.63,22.59 -66.88,22.59 -50.29,0 -84.25,-40.66 -84.25,-86.87 0,-47.06 35.13,-87.2 84.58,-87.2 22.27,0 46.79,8.28 66.56,22.8l25.83 -39.4c-25.65,-22.29 -63.06,-34.44 -98.59,-34.44 -77.85,0 -136.59,60.47 -136.59,139.6 0,78.03 56.93,137.6 135.29,137.6 36.33,0 75.82,-12.38 100.38,-34.07l-26.33 -40.61zm-37.89 -362.59c4.41,-1.75 9.2,-2.71 14.24,-2.71 11.3,0 21.46,4.85 28.53,12.58 6.06,6.83 9.74,15.81 9.74,25.65 0,11.13 -3.17,18.78 -8.42,24.72 -1.37,1.49 -2.87,2.87 -4.5,4.12 -5.87,5.25 -13.37,8.73 -21.64,9.6l0 63.74c-17.33,-4.91 -35.32,-7.39 -52.81,-7.39 -21.91,0 -42.53,3.96 -61.31,11.21l0 -67.56c-8.28,-0.87 -15.76,-4.35 -21.64,-9.6 -1.62,-1.25 -3.13,-2.63 -4.49,-4.12 -5.26,-5.94 -8.43,-13.59 -8.43,-21.94l0 -2.78c0,-9.84 3.67,-18.82 9.74,-25.65 7.06,-7.73 17.24,-12.58 28.54,-12.58 5.02,0 9.83,0.96 14.23,2.71 5.78,-16.02 21.1,-27.47 39.11,-27.47 18.01,0 33.34,11.45 39.11,27.47zm309.56 551.3c0,2.9 -1.02,5.41 -3.08,7.52 -2.06,2.11 -4.52,3.17 -7.42,3.17 -2.95,0 -5.46,-1.06 -7.48,-3.17 -2.04,-2.11 -3.05,-4.62 -3.05,-7.52 0,-2.95 1.02,-5.46 3.09,-7.55 2.05,-2.09 4.53,-3.14 7.44,-3.14 2.9,0 5.36,1.05 7.42,3.14 2.06,2.09 3.08,4.6 3.08,7.55zm837.49 0c0,2.9 -1.02,5.41 -3.07,7.52 -2.07,2.11 -4.53,3.17 -7.42,3.17 -2.96,0 -5.46,-1.06 -7.49,-3.17 -2.04,-2.11 -3.04,-4.62 -3.04,-7.52 0,-2.95 1.02,-5.46 3.08,-7.55 2.05,-2.09 4.54,-3.14 7.45,-3.14 2.89,0 5.35,1.05 7.42,3.14 2.05,2.09 3.07,4.6 3.07,7.55zm-752.51 26l19.97 0c16.83,0 28.46,-11.71 28.46,-26.78l0 -0.15c0,-15.08 -11.63,-26.63 -28.46,-26.63l-19.97 0 0 53.56zm9.41 -8.57l0 -36.42 10.56 0c11.25,0 18.59,7.73 18.59,18.21l0 0.15c0,10.48 -7.34,18.06 -18.59,18.06l-10.56 0zm72.23 8.57l40.09 0 0 -8.42 -30.68 0 0 -14.38 26.85 0 0 -8.42 -26.85 0 0 -13.92 30.3 0 0 -8.42 -39.71 0 0 53.56zm91.81 0.76c11.24,0 19.13,-5.96 19.13,-15.98l0 -0.16c0,-8.88 -5.9,-12.93 -17.22,-15.69 -10.25,-2.44 -12.7,-4.28 -12.7,-8.41l0 -0.15c0,-3.52 3.21,-6.35 8.72,-6.35 4.9,0 9.72,1.91 14.54,5.5l5.05 -7.11c-5.43,-4.36 -11.63,-6.73 -19.44,-6.73 -10.63,0 -18.28,6.35 -18.28,15.53l0 0.15c0,9.87 6.43,13.24 17.82,15.99 9.95,2.3 12.1,4.36 12.1,8.19l0 0.15c0,4.06 -3.68,6.73 -9.49,6.73 -6.66,0 -11.78,-2.52 -16.91,-6.96l-5.66 6.73c6.43,5.74 14.15,8.57 22.34,8.57zm52.02 -0.76l19.97 0c16.84,0 28.46,-11.71 28.46,-26.78l0 -0.15c0,-15.08 -11.62,-26.63 -28.46,-26.63l-19.97 0 0 53.56zm9.41 -8.57l0 -36.42 10.56 0c11.25,0 18.59,7.73 18.59,18.21l0 0.15c0,10.48 -7.34,18.06 -18.59,18.06l-10.56 0zm72.23 8.57l40.09 0 0 -8.42 -30.68 0 0 -14.38 26.85 0 0 -8.42 -26.85 0 0 -13.92 30.3 0 0 -8.42 -39.71 0 0 53.56zm121.11 0l9.33 0 0 -53.94 -6.57 0 -14.39 4.59 1.99 7.65 9.64 -2.68 0 44.38zm61.36 0.92c14.39,0 22.95,-11.94 22.95,-29.15l0 -0.16c0,-10.55 -2.52,-16.45 -6.5,-20.42 -3.75,-3.75 -8.11,-5.67 -14.84,-5.67 -11.86,0 -19.97,8.04 -19.97,18.52l0 0.15c0,10.33 7.57,16.99 18.97,16.99 5.74,0 9.87,-2.45 12.55,-5.66 -0.31,9.86 -5.05,16.83 -12.93,16.83 -4.59,0 -8.19,-1.61 -12.24,-5.05l-5.13 7.19c4.52,3.75 9.72,6.43 17.14,6.43zm1.99 -27.63c-6.66,0 -10.94,-3.97 -10.94,-9.55l0 -0.16c0,-5.51 3.98,-9.95 10.63,-9.95 6.81,0 11.17,4.29 11.17,9.87l0 0.16c0,5.2 -4.05,9.63 -10.86,9.63zm54.09 26.71l10.56 0 24.18 -46.44 0 -7.12 -37.65 0 0 8.27 26.94 0 -24.03 45.29zm83.63 0.76c11.7,0 20.43,-5.96 20.43,-15.53l0 -0.15c0,-6.35 -3.83,-10.18 -9.65,-12.85 4.52,-2.37 7.81,-5.97 7.81,-11.94l0 -0.15c0,-8.27 -7.88,-14.46 -18.59,-14.46 -10.71,0 -18.59,6.27 -18.59,14.46l0 0.15c0,5.97 3.28,9.57 7.8,11.94 -6.04,2.52 -9.64,6.58 -9.64,13.08l0 0.15c0,9.19 8.72,15.3 20.43,15.3zm0 -31.67c-5.51,0 -9.57,-3.29 -9.57,-7.96l0 -0.15c0,-4.06 3.83,-7.42 9.57,-7.42 5.73,0 9.56,3.36 9.56,7.5l0 0.15c0,4.59 -4.05,7.88 -9.56,7.88zm0 23.79c-7.04,0 -11.25,-3.67 -11.25,-8.03l0 -0.15c0,-4.9 4.9,-8.11 11.25,-8.11 6.35,0 11.24,3.21 11.24,8.11l0 0.15c0,4.44 -4.2,8.03 -11.24,8.03zm480.38 -177.64c-27.48,0 -48.09,-22.55 -48.09,-53.79 0,-31.17 20.74,-53.21 48.28,-53.21 27.55,0 48.22,22.17 48.22,53.08 0,31.37 -20.99,53.92 -48.41,53.92zm0 44.73c56.26,0 100,-39.6 100,-98.97 0,-59.18 -43.42,-98.13 -99.68,-98.13 -56.38,0 -99.75,39.34 -99.75,98.58 0,59.17 43.37,98.52 99.43,98.52zm-185.06 -48.55c0,32.6 28.59,48.55 59.11,48.55l6.68 -40.38c-11.67,-5.97 -14.46,-13.16 -14.46,-28.85l0 -216.99 -51.33 9.33 0 228.34zm-161.2 -68.12c3.5,-23.78 20.16,-39.27 43.75,-39.27 24.82,0 38.56,17.3 40.96,39.27l-84.71 0zm122.17 91.07l-23.01 -31.38c-13.73,10.05 -30.13,16.6 -48.34,16.6 -28.98,0 -48.35,-16.72 -51.4,-43.62l134.03 0c0.45,-4.35 0.84,-11.28 0.84,-17.18 0,-54.57 -34.02,-95.99 -89.96,-95.99 -53.53,0 -96.31,37.79 -96.31,99.69 0,63.51 44.92,97.41 98.97,97.41 28.65,0 56.06,-9.53 75.18,-25.53zm-204.43 -168.06l-51.59 0 0 107c0,24.37 -13.02,40.77 -37.39,40.77 -22.17,0 -33.12,-13.23 -33.12,-35.13l0 -112.64 -51.59 0 0 115.43c0,46.79 22.16,78.23 69.08,78.23 23.66,0 44.86,-8.04 58.73,-27.61l3.75 24.11 42.13 0 0 -190.16zm-203.72 146.99l-95.98 0 95.27 -110.76 0 -36.17 -158.66 0 0 42.65 88.6 0 -93.59 109.66 0 37.79 164.36 0 0 -43.17zm-316.3 -70c3.51,-23.78 20.16,-39.27 43.75,-39.27 24.83,0 38.57,17.3 40.97,39.27l-84.72 0zm122.18 91.07l-23.01 -31.38c-13.74,10.05 -30.14,16.6 -48.35,16.6 -28.97,0 -48.35,-16.72 -51.4,-43.62l134.03 0c0.46,-4.35 0.85,-11.28 0.85,-17.18 0,-54.57 -34.03,-95.99 -89.96,-95.99 -53.54,0 -96.32,37.79 -96.32,99.69 0,63.51 44.92,97.41 98.97,97.41 28.65,0 56.07,-9.53 75.19,-25.53zm-292.64 -19.13c-31.18,0 -45.5,-26.44 -45.5,-54.24 0,-29.69 16.59,-52.76 45.95,-52.76 28.84,0 46.34,22.17 46.34,53.08 0,31.83 -18.41,53.92 -46.79,53.92zm-53.35 41.23l3.89 -25.48c13.87,19.51 35.91,28.98 60.54,28.98 52.04,0 87.04,-41.36 87.04,-99.3 0,-50.81 -27.54,-97.8 -86.2,-97.8 -21.84,0 -41.67,6.87 -55.8,23.59l0 -112.71 -51.6 9.33 0 273.39 42.13 0zm-136.24 -80.44l0 10.31c0,21.06 -22.75,33.57 -42.98,33.57 -14.32,0 -28.32,-6.22 -28.32,-22.75 0,-15.68 12.57,-24.69 39.41,-24.69 11.8,0 24.04,1.81 31.89,3.56zm63.9 47.51c-10.18,-5.7 -13.09,-12.38 -13.09,-28.13l0 -64.74c0,-45.05 -28.91,-67.8 -80.24,-67.8 -26.12,0 -55.87,5.9 -77.97,21.45l15.23 33.38c14.71,-7.97 34.42,-13.35 52.95,-13.35 22.75,0 39.22,8.36 39.22,29.94l0 7.65c-10.18,-2.07 -24.31,-4.08 -38.63,-4.08 -51.21,0 -81.93,25.08 -81.93,62.48 0,37.4 31.05,59.63 67.8,59.63 21.13,0 44.65,-7.33 57.42,-26.64 3.57,18.92 25.54,26.64 53.28,26.64l5.96 -36.43z"></path> </g> </svg> 